HIERARCHY
ROOT Hips
{
    OFFSET 0.000000 0.000000 0.000000
    CHANNELS 6 Xposition Yposition Zposition Zrotation Xrotation Yrotation
    JOINT Spine
    {
        OFFSET -0.000000 0.083210 0.000000
        CHANNELS 3 Zrotation Xrotation Yrotation
        JOINT Spine1
        {
            OFFSET -0.000000 0.256334 0.000000
            CHANNELS 3 Zrotation Xrotation Yrotation
            JOINT Neck
            {
                OFFSET -0.000000 0.275576 0.002912
                CHANNELS 3 Zrotation Xrotation Yrotation
                JOINT Head
                {
                    OFFSET -0.000000 0.157287 0.020295
                    CHANNELS 3 Zrotation Xrotation Yrotation
                    End Site
                    {
                        OFFSET -0.000000 0.202951 0.000000
                    }
                }
            }
            JOINT LeftShoulder
            {
                OFFSET 0.041044 0.235234 -0.000041
                CHANNELS 3 Zrotation Xrotation Yrotation
                JOINT LeftArm
                {
                    OFFSET 0.117964 0.000000 0.000000
                    CHANNELS 3 Zrotation Xrotation Yrotation
                    JOINT LeftForeArm
                    {
                        OFFSET 0.291248 0.000000 0.000000
                        CHANNELS 3 Zrotation Xrotation Yrotation
                        JOINT LeftHand
                        {
                            OFFSET 0.245673 0.000000 0.000000
                            CHANNELS 3 Zrotation Xrotation Yrotation
                            End Site
                            {
                                OFFSET 0.152213 0.000000 0.000000
                            }
                        }
                    }
                }
            }
            JOINT RightShoulder
            {
                OFFSET -0.040052 0.235234 -0.000041
                CHANNELS 3 Zrotation Xrotation Yrotation
                JOINT RightArm
                {
                    OFFSET -0.117964 0.000000 0.000000
                    CHANNELS 3 Zrotation Xrotation Yrotation
                    JOINT RightForeArm
                    {
                        OFFSET -0.291248 0.000000 0.000000
                        CHANNELS 3 Zrotation Xrotation Yrotation
                        JOINT RightHand
                        {
                            OFFSET -0.245673 0.000000 0.000000
                            CHANNELS 3 Zrotation Xrotation Yrotation
                            End Site
                            {
                                OFFSET -0.152213 0.000000 0.000000
                            }
                        }
                    }
                }
            }
        }
    }
    JOINT LeftUpLeg
    {
        OFFSET 0.101475 0.000000 0.000000
        CHANNELS 3 Zrotation Xrotation Yrotation
        JOINT LeftLeg
        {
            OFFSET -0.000000 -0.446535 0.000000
            CHANNELS 3 Zrotation Xrotation Yrotation
            JOINT LeftFoot
            {
                OFFSET -0.000000 -0.400037 0.000000
                CHANNELS 3 Zrotation Xrotation Yrotation
                JOINT LeftToeBase
                {
                    OFFSET -0.000000 -0.065959 0.152213
                    CHANNELS 3 Zrotation Xrotation Yrotation
                    End Site
                    {
                        OFFSET -0.000000 0.000000 0.040590
                    }
                }
            }
        }
    }
    JOINT RightUpLeg
    {
        OFFSET -0.101475 0.000000 0.000000
        CHANNELS 3 Zrotation Xrotation Yrotation
        JOINT RightLeg
        {
            OFFSET -0.000000 -0.446535 0.000000
            CHANNELS 3 Zrotation Xrotation Yrotation
            JOINT RightFoot
            {
                OFFSET -0.000000 -0.400037 0.000000
                CHANNELS 3 Zrotation Xrotation Yrotation
                JOINT RightToeBase
                {
                    OFFSET -0.000000 -0.065959 0.152213
                    CHANNELS 3 Zrotation Xrotation Yrotation
                    End Site
                    {
                        OFFSET -0.000000 0.000000 0.040590
                    }
                }
            }
        }
    }
}
MOTION
Frames:    11
Frame Time:    0.008333
0.480463    0.946328    0.403207    7.833552    -6.690588    27.517786    7.011691    2.375859    23.980980    -2.945890    -7.505684    7.850706    10.651948    10.668584    -39.193455    4.083521    2.722211    -38.527397    11.608768    -9.439487    -10.376129    -42.267597    4.904818    -34.512302    60.325466    -60.453304    -62.062450    38.415787    -27.693495    16.248194    -13.395711    -44.207920    31.475634    20.205173    12.929158    93.657082    -37.147652    -17.978764    51.175732    20.569487    0.219522    -0.547411    -11.199705    -1.258388    -10.577651    -0.591816    21.967657    -19.157520    8.162725    -4.870299    -2.009966    1.020547    4.031780    -8.440743    -4.166088    19.839001    -5.439986    2.425025    36.780663    19.314781    26.234196    36.170853    -24.699934    -0.454377    24.995283    2.304361    
0.479158    0.946670    0.404216    8.071850    -6.399986    28.549006    6.525256    2.395802    24.174723    -3.199749    -7.519267    7.895264    10.477741    10.639300    -39.055595    4.278517    2.949108    -38.461052    11.449322    -9.513432    -10.380222    -42.471115    4.204310    -34.378197    61.320480    -60.442371    -61.420139    39.234177    -27.319319    16.083277    -13.446256    -44.310165    31.574245    20.106268    12.963795    93.843048    -37.401566    -18.196724    51.831768    19.908104    0.571434    0.351322    -11.370850    -1.104413    -10.814161    -0.385920    21.548832    -20.329243    8.129554    -4.581559    -1.728510    1.022880    4.127343    -8.402821    -3.792169    19.733866    -4.672992    2.315454    36.391823    20.120874    26.901953    36.293701    -24.348972    -4.523813    35.204487    15.301615    
0.477845    0.946875    0.405335    8.308728    -6.120389    29.586754    6.034181    2.405054    24.284306    -3.455671    -7.518498    7.911816    10.353343    10.609408    -38.927464    4.447356    3.096325    -38.387817    11.368958    -9.493456    -10.291759    -42.627331    3.585969    -34.338512    62.512222    -60.526306    -60.678722    39.961674    -26.974998    16.173742    -13.431582    -44.396252    31.686953    19.983618    13.012123    94.024132    -37.680916    -18.569189    52.435860    19.433035    0.761513    1.318090    -11.549076    -0.953687    -11.129788    -0.172573    21.198412    -21.768684    8.096324    -4.338582    -1.120408    1.025805    4.240632    -8.359824    -3.390141    19.689842    -3.945092    2.197258    35.964802    20.595919    27.740896    36.292572    -23.991392    -4.881455    35.657753    16.255199    
0.476437    0.946900    0.406047    8.463318    -5.816649    30.572271    5.641426    2.415787    24.413820    -3.772336    -7.555642    7.930477    10.182618    10.535017    -38.758545    4.582819    3.356942    -38.287533    11.278997    -9.644119    -10.358189    -42.672466    3.246313    -34.094040    64.467354    -60.398727    -59.228752    40.866673    -26.152010    16.430620    -13.419789    -44.510021    31.747097    19.997034    13.141719    94.059341    -37.848385    -19.043455    53.190201    19.521292    0.855680    2.290944    -11.729183    -0.916807    -11.613893    0.055540    20.939501    -23.163813    8.048305    -4.157535    -0.346686    1.030811    4.410749    -8.301461    -2.967572    19.576715    -3.221966    2.129292    35.528244    21.413200    29.083828    36.017841    -24.324293    -5.076482    35.674980    16.886869    
0.475073    0.946895    0.406883    8.560494    -5.531650    31.538910    5.293139    2.377873    24.484005    -4.035140    -7.583498    7.932601    10.027287    10.537898    -38.647732    4.672493    3.415051    -38.222980    11.228188    -9.793063    -10.310038    -42.711136    3.152625    -33.888687    66.410942    -60.407135    -57.702679    41.636116    -25.762470    16.525639    -13.395719    -44.378391    31.846033    19.838461    13.010842    94.167877    -37.858990    -19.439087    53.903202    18.876108    0.889346    3.154393    -11.850415    -0.869286    -12.366156    0.177753    20.665668    -24.067207    8.001741    -4.003176    0.215551    1.028621    4.586357    -8.184314    -2.491557    19.517164    -2.539361    2.125942    34.943863    21.090338    29.714762    36.264858    -23.680824    -5.559554    36.203342    18.160147    
0.473957    0.946780    0.407633    8.592724    -5.243379    32.465355    5.040706    2.264898    24.474434    -4.284388    -7.571520    7.910087    9.850969    10.560401    -38.521702    4.611217    3.467857    -38.125671    11.158916    -9.776366    -10.086625    -42.582005    3.157428    -33.890720    68.930267    -60.235672    -55.515774    41.971725    -25.267834    16.675968    -13.284367    -44.386356    32.099548    19.714010    13.031062    94.170502    -38.253372    -19.758560    54.366451    18.834566    1.171566    4.249208    -11.938752    -0.806320    -13.340264    0.190851    20.294704    -24.103636    7.955937    -3.876934    0.253907    1.032283    4.785422    -8.102960    -2.005986    19.484116    -1.664911    2.317714    34.259315    20.945379    30.532129    36.371258    -23.530581    -5.803484    36.720852    18.637577    
0.472920    0.946643    0.408287    8.574858    -4.936559    33.362041    4.785003    2.167270    24.569029    -4.480040    -7.681033    7.921476    9.623440    10.582381    -38.506786    4.488832    3.548545    -38.146633    11.012297    -9.590373    -10.002565    -42.376938    3.101392    -34.006588    71.026573    -60.202663    -53.601437    42.328964    -25.224449    16.726013    -13.505192    -44.343819    32.013397    19.688351    13.010964    94.192345    -38.481724    -20.077820    54.875168    18.600365    1.315244    5.005321    -12.037203    -0.804763    -14.385954    0.232236    19.980669    -24.374886    7.927224    -3.721103    0.610304    1.031658    4.982141    -7.991936    -1.526850    19.411263    -1.156425    2.337141    33.580429    20.832245    31.156172    36.553471    -23.220055    -6.060603    37.223320    19.147926    
0.471993    0.946404    0.408646    8.489745    -4.587976    34.235004    4.689209    1.987543    24.590208    -4.836554    -7.719731    7.900043    9.458870    10.653385    -38.458317    4.379961    3.542542    -38.113548    11.009396    -9.880786    -9.959717    -42.395664    3.242920    -33.670864    72.916267    -59.922150    -52.005001    42.506874    -24.646645    16.873459    -13.546335    -44.324619    32.055340    19.891769    12.955277    94.048515    -38.409744    -20.173346    55.696907    18.179321    1.609838    5.512182    -12.143661    -0.927308    -15.355499    0.319077    19.757534    -24.782150    7.925113    -3.539884    1.003965    1.028623    5.013731    -7.951761    -1.030115    19.222336    -0.997232    2.156742    32.984737    21.020330    31.719650    36.739578    -22.883621    -6.306768    37.795609    19.565800    
0.471201    0.946259    0.408885    8.350467    -4.256518    35.004669    4.672843    1.755406    24.657326    -5.121039    -7.705361    7.900618    9.190488    10.753349    -38.331375    4.318698    3.489285    -38.026142    10.778420    -9.804375    -9.849226    -42.158386    3.258110    -33.639595    74.519691    -59.976082    -50.439346    42.282539    -25.093864    16.702518    -13.692696    -44.207310    32.058891    19.777601    12.783766    94.009270    -38.494774    -20.363760    56.191322    17.765785    1.755955    6.074952    -12.208446    -1.091171    -16.211802    0.382723    19.561106    -24.979061    7.933345    -3.407572    1.232059    1.030373    5.168800    -7.883969    -0.563836    19.023638    -0.792144    2.022917    32.401485    21.273333    32.495140    36.796562    -22.808390    -6.417239    38.256618    19.626789    
0.470002    0.945926    0.409513    8.147743    -4.031579    35.813961    4.657310    1.572069    24.632132    -5.330744    -7.727821    7.874563    9.008529    10.806862    -38.265892    4.203686    3.355044    -37.976181    10.733703    -9.784155    -9.638076    -42.058685    3.229530    -33.692657    76.071236    -59.428284    -49.043934    42.703045    -24.271841    16.531822    -13.907698    -44.165287    31.946142    19.591003    12.631207    94.086922    -38.495350    -20.662489    56.476078    16.916672    1.622817    6.738484    -12.116794    -1.284304    -16.835226    0.496916    19.534710    -25.672138    7.931295    -3.317460    1.596580    1.020510    5.268608    -7.757782    0.094685    18.907570    -0.628756    1.909260    31.811342    21.265039    33.074348    36.869778    -22.732061    -6.577319    38.654106    19.869776    
0.469082    0.945654    0.409706    7.971921    -3.753850    36.526810    4.748724    1.370613    24.649141    -5.770787    -7.707105    7.849220    9.008681    10.868482    -38.221268    4.017802    3.197279    -37.895702    10.813486    -9.853897    -9.475405    -42.108437    3.223465    -33.650928    77.104050    -59.158932    -48.073158    42.939228    -23.982891    16.381821    -13.936838    -44.055061    31.930761    19.416630    12.459975    93.997246    -38.567455    -20.910969    56.810303    16.562592    1.652749    7.529089    -12.106604    -1.548216    -17.392303    0.574555    19.523235    -26.215725    7.910448    -3.223674    1.876367    1.021151    5.348829    -7.722147    0.578322    18.724834    -0.468032    1.872505    31.328745    21.327808    33.508556    36.945641    -22.718288    -6.677201    38.741619    20.113604    
